<svg width="95" height="155" viewBox="0 0 95 155" fill="none" xmlns="http://www.w3.org/2000/svg">
<g opacity="0.4">
<path d="M65.862 67.2271H-34.8564V68.4261H65.862V67.2271Z" fill="#A30C33"/>
<path d="M-39.6496 62.432H-40.8486V55.2378C-40.8486 55.0579 -40.7887 54.938 -40.6688 54.8181L-3.97849 18.2477C-3.85858 18.1278 -3.73867 18.0679 -3.55882 18.0679H29.8941V19.2669H-3.31902L-39.6496 55.4776V62.432Z" fill="#A30C33"/>
<path d="M47.28 122.983H2.31642C2.13657 122.983 2.01666 122.923 1.89676 122.803L-40.6688 80.2376C-40.7887 80.1177 -40.8486 79.9978 -40.8486 79.8179V73.8228H-39.6496V79.5781L2.55622 121.784H47.28V122.983Z" fill="#A30C33"/>
<path d="M17.3018 84.614H-6.79873C-6.97858 84.614 -7.09848 84.554 -7.21838 84.4341L-23.4053 68.3671L-22.566 67.5278L-6.55891 83.415H17.3018V84.614Z" fill="#A30C33"/>
<path d="M0.63621 68.3065L-0.203125 67.4672L15.9238 51.2204C16.0437 51.1005 16.1636 51.0405 16.3435 51.0405H40.6838V52.2396H16.5833L0.63621 68.3065Z" fill="#A30C33"/>
<path d="M92.2388 37.8515L-2.96407 37.8515C-3.14393 37.8515 -3.26384 37.7916 -3.38374 37.6717L-12.916 28.0195L-12.0767 27.1802L-2.72427 36.6525L92.2388 36.6525V37.8515Z" fill="#A30C33"/>
<path d="M7.34908 19.088L6.50977 18.2487L22.0971 2.6613C22.217 2.5414 22.337 2.48145 22.5168 2.48145L72.4564 2.48145V3.68047L22.7566 3.68047L7.34908 19.088Z" fill="#A30C33"/>
<path d="M17.062 152.36L-7.09847 128.199C-7.21838 128.079 -7.27832 127.96 -7.27832 127.78L-7.27832 113.391H-6.07929L-6.07929 127.54L17.9013 151.52L17.062 152.36Z" fill="#A30C33"/>
<path d="M11.6069 122.622L10.7676 121.783L26.6547 105.776C26.7746 105.656 26.8945 105.596 27.0744 105.596H87.4455V106.795H27.3741L11.6069 122.622Z" fill="#A30C33"/>
<path d="M67.6618 139.77H40.8035C40.6237 139.77 40.5038 139.71 40.3839 139.59L23.4775 122.684L24.3169 121.844L41.0433 138.571H67.6618V139.77Z" fill="#A30C33"/>
<path d="M72.4589 5.83731C73.982 5.83731 75.2167 4.60262 75.2167 3.07954C75.2167 1.55647 73.982 0.321777 72.4589 0.321777C70.9359 0.321777 69.7012 1.55647 69.7012 3.07954C69.7012 4.60262 70.9359 5.83731 72.4589 5.83731Z" fill="#A30C33"/>
<path d="M35.2885 25.0217C31.8113 25.0217 28.9336 22.204 28.9336 18.6669C28.9336 15.1297 31.7513 12.312 35.2885 12.312C38.8256 12.312 41.6433 15.1297 41.6433 18.6669C41.6433 22.204 38.7656 25.0217 35.2885 25.0217ZM35.2885 13.511C32.4707 13.511 30.1326 15.8491 30.1326 18.6669C30.1326 21.4846 32.4707 23.8227 35.2885 23.8227C38.1062 23.8227 40.4443 21.4846 40.4443 18.6669C40.4443 15.8491 38.1062 13.511 35.2885 13.511Z" fill="#A30C33"/>
<path d="M35.2861 21.4237C36.8092 21.4237 38.0439 20.189 38.0439 18.666C38.0439 17.1429 36.8092 15.9082 35.2861 15.9082C33.763 15.9082 32.5283 17.1429 32.5283 18.666C32.5283 20.189 33.763 21.4237 35.2861 21.4237Z" fill="#A30C33"/>
<path d="M94.9989 37.372C94.9989 38.8708 93.74 40.1298 92.2412 40.1298C90.7424 40.1298 89.4834 38.8708 89.4834 37.372C89.4834 35.8732 90.7424 34.6143 92.2412 34.6143C93.74 34.6143 94.9989 35.8133 94.9989 37.372Z" fill="#A30C33"/>
<path d="M40.6826 54.3984C42.2056 54.3984 43.4403 53.1637 43.4403 51.6406C43.4403 50.1175 42.2056 48.8828 40.6826 48.8828C39.1595 48.8828 37.9248 50.1175 37.9248 51.6406C37.9248 53.1637 39.1595 54.3984 40.6826 54.3984Z" fill="#A30C33"/>
<path d="M71.2582 74.1824C67.781 74.1824 64.9033 71.3647 64.9033 67.8275C64.9033 64.2904 67.721 61.4727 71.2582 61.4727C74.7953 61.4727 77.613 64.2904 77.613 67.8275C77.613 71.3647 74.7354 74.1824 71.2582 74.1824ZM71.2582 62.6717C68.4405 62.6717 66.1023 65.0098 66.1023 67.8275C66.1023 70.6452 68.4405 72.9833 71.2582 72.9833C74.0759 72.9833 76.414 70.6452 76.414 67.8275C76.414 65.0098 74.0759 62.6717 71.2582 62.6717Z" fill="#A30C33"/>
<path d="M71.2558 70.5844C72.7789 70.5844 74.0136 69.3497 74.0136 67.8266C74.0136 66.3035 72.7789 65.0688 71.2558 65.0688C69.7327 65.0688 68.498 66.3035 68.498 67.8266C68.498 69.3497 69.7327 70.5844 71.2558 70.5844Z" fill="#A30C33"/>
<path d="M17.2988 86.7724C18.8219 86.7724 20.0566 85.5377 20.0566 84.0146C20.0566 82.4915 18.8219 81.2568 17.2988 81.2568C15.7757 81.2568 14.541 82.4915 14.541 84.0146C14.541 85.5377 15.7757 86.7724 17.2988 86.7724Z" fill="#A30C33"/>
<path d="M87.4462 108.955C88.9693 108.955 90.204 107.72 90.204 106.197C90.204 104.674 88.9693 103.439 87.4462 103.439C85.9232 103.439 84.6885 104.674 84.6885 106.197C84.6885 107.72 85.9232 108.955 87.4462 108.955Z" fill="#A30C33"/>
<path d="M52.6732 128.619C49.196 128.619 46.3184 125.801 46.3184 122.264C46.3184 118.727 49.1361 115.909 52.6732 115.909C56.2104 115.909 59.0281 118.727 59.0281 122.264C59.0281 125.801 56.1504 128.619 52.6732 128.619ZM52.6732 117.108C49.8555 117.108 47.5174 119.447 47.5174 122.264C47.5174 125.082 49.8555 127.42 52.6732 127.42C55.4909 127.42 57.829 125.082 57.829 122.264C57.829 119.447 55.4909 117.108 52.6732 117.108Z" fill="#A30C33"/>
<path d="M55.4306 122.263C55.4306 123.762 54.1716 125.021 52.6728 125.021C51.174 125.021 49.915 123.762 49.915 122.263C49.915 120.765 51.174 119.506 52.6728 119.506C54.1716 119.506 55.4306 120.765 55.4306 122.263Z" fill="#A30C33"/>
<path d="M67.6611 141.927C69.1842 141.927 70.4189 140.693 70.4189 139.17C70.4189 137.647 69.1842 136.412 67.6611 136.412C66.138 136.412 64.9033 137.647 64.9033 139.17C64.9033 140.693 66.138 141.927 67.6611 141.927Z" fill="#A30C33"/>
<path d="M20.2421 151.939C20.2421 153.438 18.9831 154.697 17.4843 154.697C15.9855 154.697 14.7266 153.438 14.7266 151.939C14.7266 150.44 15.9855 149.181 17.4843 149.181C19.0431 149.241 20.2421 150.44 20.2421 151.939Z" fill="#A30C33"/>
<g opacity="0.4">
<path d="M65.8657 67.2271H-36.0518V68.4261H65.8657V67.2271Z" fill="black"/>
<path d="M-39.6496 62.432H-40.8486V55.2378C-40.8486 55.0579 -40.7887 54.938 -40.6688 54.8181L-3.97849 18.2477C-3.85858 18.1278 -3.73867 18.0679 -3.55882 18.0679H29.8941V19.2669H-3.31902L-39.6496 55.4776V62.432Z" fill="black"/>
<path d="M47.28 122.983H2.31642C2.13657 122.983 2.01666 122.923 1.89676 122.803L-40.6688 80.2376C-40.7887 80.1177 -40.8486 79.9978 -40.8486 79.8179V73.8228H-39.6496V79.5781L2.55622 121.784H47.28V122.983Z" fill="black"/>
<path d="M17.3037 84.614H-6.79678C-6.97663 84.614 -7.09652 84.554 -7.21643 84.4341L-23.4033 68.3671L-22.564 67.5278L-6.55696 83.415H17.3037V84.614Z" fill="black"/>
<path d="M0.637187 68.3065L-0.202148 67.4672L15.9248 51.2204C16.0447 51.1005 16.1646 51.0405 16.3445 51.0405H40.6848V52.2396H16.5843L0.637187 68.3065Z" fill="black"/>
<path d="M92.2427 37.8515L-2.96017 37.8515C-3.14002 37.8515 -3.25993 37.7916 -3.37983 37.6717L-12.9121 28.0195L-12.0728 27.1802L-2.72036 36.6525L92.2427 36.6525V37.8515Z" fill="black"/>
<path d="M7.35299 19.088L6.51367 18.2487L22.1011 2.6613C22.221 2.5414 22.3409 2.48145 22.5207 2.48145L72.4603 2.48145V3.68047L22.7605 3.68047L7.35299 19.088Z" fill="black"/>
<path d="M17.0639 152.36L-7.09652 128.199C-7.21642 128.079 -7.27637 127.96 -7.27637 127.78L-7.27637 113.391H-6.07734L-6.07734 127.54L17.9032 151.52L17.0639 152.36Z" fill="black"/>
<path d="M11.6069 122.622L10.7676 121.783L26.6547 105.776C26.7746 105.656 26.8945 105.596 27.0744 105.596H87.4455V106.795H27.3741L11.6069 122.622Z" fill="black"/>
<path d="M67.6618 139.77H40.8035C40.6237 139.77 40.5038 139.71 40.3839 139.59L23.4775 122.684L24.3169 121.844L41.0433 138.571H67.6618V139.77Z" fill="black"/>
<path d="M72.4589 5.83731C73.982 5.83731 75.2167 4.60262 75.2167 3.07954C75.2167 1.55647 73.982 0.321777 72.4589 0.321777C70.9359 0.321777 69.7012 1.55647 69.7012 3.07954C69.7012 4.60262 70.9359 5.83731 72.4589 5.83731Z" fill="black"/>
<path d="M35.2875 25.0217C31.8103 25.0217 28.9326 22.204 28.9326 18.6669C28.9326 15.1297 31.7503 12.312 35.2875 12.312C38.8246 12.312 41.6423 15.1297 41.6423 18.6669C41.6423 22.204 38.7647 25.0217 35.2875 25.0217ZM35.2875 13.511C32.4698 13.511 30.1316 15.8491 30.1316 18.6669C30.1316 21.4846 32.4698 23.8227 35.2875 23.8227C38.1052 23.8227 40.4433 21.4846 40.4433 18.6669C40.4433 15.8491 38.1052 13.511 35.2875 13.511Z" fill="black"/>
<path d="M95.0009 37.372C95.0009 38.8708 93.7419 40.1298 92.2431 40.1298C90.7443 40.1298 89.4854 38.8708 89.4854 37.372C89.4854 35.8732 90.7443 34.6143 92.2431 34.6143C93.7419 34.6143 95.0009 35.8133 95.0009 37.372Z" fill="black"/>
<path d="M40.6826 54.3981C42.2056 54.3981 43.4403 53.1634 43.4403 51.6403C43.4403 50.1173 42.2056 48.8826 40.6826 48.8826C39.1595 48.8826 37.9248 50.1173 37.9248 51.6403C37.9248 53.1634 39.1595 54.3981 40.6826 54.3981Z" fill="black"/>
<path d="M71.2592 74.1824C67.782 74.1824 64.9043 71.3647 64.9043 67.8275C64.9043 64.2904 67.722 61.4727 71.2592 61.4727C74.7963 61.4727 77.614 64.2904 77.614 67.8275C77.614 71.3647 74.7363 74.1824 71.2592 74.1824ZM71.2592 62.6717C68.4414 62.6717 66.1033 65.0098 66.1033 67.8275C66.1033 70.6452 68.4414 72.9833 71.2592 72.9833C74.0769 72.9833 76.415 70.6452 76.415 67.8275C76.415 65.0098 74.0769 62.6717 71.2592 62.6717Z" fill="black"/>
<path d="M17.3007 86.7724C18.8238 86.7724 20.0585 85.5377 20.0585 84.0146C20.0585 82.4915 18.8238 81.2568 17.3007 81.2568C15.7777 81.2568 14.543 82.4915 14.543 84.0146C14.543 85.5377 15.7777 86.7724 17.3007 86.7724Z" fill="black"/>
<path d="M87.4462 108.955C88.9693 108.955 90.204 107.72 90.204 106.197C90.204 104.674 88.9693 103.439 87.4462 103.439C85.9232 103.439 84.6885 104.674 84.6885 106.197C84.6885 107.72 85.9232 108.955 87.4462 108.955Z" fill="black"/>
<path d="M52.6752 128.619C49.198 128.619 46.3203 125.801 46.3203 122.264C46.3203 118.727 49.138 115.909 52.6752 115.909C56.2123 115.909 59.03 118.727 59.03 122.264C59.03 125.801 56.1524 128.619 52.6752 128.619ZM52.6752 117.108C49.8575 117.108 47.5193 119.447 47.5193 122.264C47.5193 125.082 49.8575 127.42 52.6752 127.42C55.4929 127.42 57.831 125.082 57.831 122.264C57.831 119.447 55.4929 117.108 52.6752 117.108Z" fill="black"/>
<path d="M67.6621 141.927C69.1851 141.927 70.4198 140.693 70.4198 139.17C70.4198 137.647 69.1851 136.412 67.6621 136.412C66.139 136.412 64.9043 137.647 64.9043 139.17C64.9043 140.693 66.139 141.927 67.6621 141.927Z" fill="black"/>
<path d="M20.2421 151.939C20.2421 153.438 18.9831 154.697 17.4843 154.697C15.9855 154.697 14.7266 153.438 14.7266 151.939C14.7266 150.44 15.9855 149.181 17.4843 149.181C19.0431 149.241 20.2421 150.44 20.2421 151.939Z" fill="black"/>
</g>
</g>
</svg>
