<svg width="36" height="36" viewBox="0 0 36 36" fill="none" xmlns="http://www.w3.org/2000/svg">
<rect x="20.1362" y="20.8325" width="6.54545" height="6.54545" rx="1" stroke="#B01736" stroke-width="2"/>
<path d="M6.47217 15.9894V26.0857V34.0002C6.47217 34.4018 6.79778 34.7275 7.19944 34.7275H28.8608C29.2625 34.7275 29.5881 34.4018 29.5881 34.0002V15.9894M16.654 34.7275V21.5602C16.654 21.1585 16.3284 20.8329 15.9267 20.8329H10.8358C10.4341 20.8329 10.1085 21.1585 10.1085 21.5602V34.7275" stroke="#B01736" stroke-width="2"/>
<path d="M2.32577 15.8182H33.6747C34.6657 15.8182 35.1057 14.6035 34.3346 13.9968L18.4507 1.49997C18.0616 1.19387 17.5051 1.19742 17.1202 1.50847L1.65522 14.0053C0.897565 14.6176 1.34166 15.8182 2.32577 15.8182Z" stroke="#B01736" stroke-width="2"/>
</svg>
